<?xml version="1.0" encoding="UTF-8"?>
<svg id="Calque_2" xmlns="http://www.w3.org/2000/svg" viewBox="0 0 581.41 549.24">
  <defs>
    <style>
      .cls-1 {
        fill: #780b00;
      }

      .cls-2 {
        fill: #ae4536;
      }

      .cls-3 {
        fill: #e6a670;
      }
    </style>
  </defs>
  <g id="Object">
    <g>
      <path class="cls-1" d="M290.71,520.62c-83.04,0-159.9-41.46-205.62-110.91-3.04-4.61-1.76-10.81,2.85-13.85,4.61-3.04,10.82-1.76,13.85,2.85,42,63.81,112.63,101.9,188.91,101.9,53.82,0,105.96-19.24,146.8-54.16,40.4-34.55,67.44-82.29,76.12-134.42.91-5.45,6.05-9.12,11.51-8.22,5.45.91,9.13,6.06,8.22,11.51-9.45,56.76-38.88,108.73-82.85,146.33-44.46,38.02-101.21,58.96-159.8,58.96Z"/>
      <path class="cls-1" d="M72.88,193.63c-1.29,0-2.59-.25-3.85-.78-5.1-2.13-7.5-7.99-5.37-13.08,18.49-44.22,49.3-81.86,89.1-108.86,40.78-27.67,88.48-42.29,137.95-42.29,60.85,0,119.25,22.39,164.45,63.04,4.11,3.69,4.44,10.02.75,14.12-3.69,4.11-10.01,4.44-14.12.75-41.52-37.35-95.18-57.92-151.08-57.92-45.45,0-89.27,13.43-126.72,38.84-36.57,24.81-64.88,59.4-81.87,100.03-1.6,3.83-5.32,6.14-9.23,6.14Z"/>
      <g>
        <path class="cls-2" d="M151.65,221.11c-2.38-3.17-5.66-5.85-9.82-8.08-4.16-2.23-9.05-4.01-14.65-5.34-5.6-1.33-11.64-2.18-18.09-2.55-6.45-.36-13.19-.25-20.19.35-7,.59-13.97,1.69-20.91,3.29-5.95,1.37-11.75,3.12-17.39,5.22-5.64,2.11-10.99,4.6-16.04,7.48s-9.7,6.12-13.95,9.72c-4.25,3.62-7.91,7.66-10.99,12.12-3.07,4.46-5.46,9.3-7.15,14.53C.79,263.07-.04,268.73,0,274.79c.04,6.25,1.41,9.07,4.11,8.44,1.97-.45,4.5-2.87,7.61-7.27,3.11-4.39,6.63-10.72,10.57-18.99,1.95-3.12,4.8-6.19,8.56-9.17,3.76-2.99,8.08-5.71,12.95-8.18,4.88-2.46,10.13-4.65,15.77-6.58,4.11-1.45,9.88-3.03,17.3-4.75,4.6-1.06,9.14-1.9,13.63-2.54,4.48-.63,8.75-1,12.81-1.09,4.06-.1,7.81.08,11.25.53,3.44.45,6.44,1.2,9,2.26,2.55,1.06,4.55,2.47,5.97,4.22,1.43,1.75,2.15,3.88,2.17,6.35.02,3.8-.86,7.56-2.65,11.3-1.8,3.75-4.35,7.24-7.68,10.5-3.33,3.26-7.37,6.16-12.12,8.72-4.75,2.56-10.07,4.52-15.96,5.88-2.52.58-4.87,1.01-7.05,1.3-2.18.29-4.59.73-7.23,1.34-1.97.45-3.52.97-4.65,1.55-1.13.57-1.99,1.23-2.57,1.99-.58.75-.94,1.63-1.09,2.62-.15.99-.22,2.14-.21,3.44.02,2.76.71,4.85,2.06,6.27,1.36,1.42,3.14,2.45,5.33,3.11,2.18.67,4.67,1.05,7.47,1.16,2.8.11,5.66.22,8.58.34,2.93.12,5.78.34,8.58.68,2.8.33,5.29,1.08,7.48,2.21,2.19,1.14,3.96,2.78,5.33,4.9,1.37,2.12,2.06,5.02,2.09,8.69.04,6.83-1.07,12.71-3.34,17.64-2.28,4.93-5.31,9.24-9.09,12.93-3.79,3.69-8.14,6.76-13.04,9.18-4.9,2.43-9.96,4.25-15.18,5.45-4.3.99-8.6,1.54-12.89,1.65-4.3.11-8.33-.04-12.08-.44-.49-.27-.87-.77-1.11-1.5-.25-.73-.46-1.55-.62-2.47s-.24-1.81-.25-2.7c0-.89-.01-1.58-.01-2.09-.02-3.14,0-6.43.07-9.87.07-3.44.19-6.91.35-10.4.16-3.5.34-7.07.53-10.73.19-3.66.43-7,.72-10.02.46-5.33,1.09-10.81,1.88-16.46.79-5.65,1.69-10.45,2.72-14.39,1.02-3.94,2.51-8.52,4.48-13.76,1.96-5.22,4.34-10.12,7.14-14.65-3.04-4.4-6.8-6.09-11.28-5.05-3.56.82-7.51,3.26-11.85,7.31-4.92,8.61-8.71,17.17-11.36,25.69-2.65,8.52-4.74,18.3-6.27,29.35-1.53,11.05-2.52,22.09-2.97,33.12-.45,11.03-.65,21.74-.58,32.14.01,2.06.68,3.33,2,3.82,1.32.5,2.85.75,4.57.75,3.88.42,8,.69,12.36.83,4.37.14,8.81.1,13.33-.11,4.51-.21,8.99-.59,13.41-1.12,4.42-.54,8.62-1.26,12.62-2.18,6.32-1.46,12.12-3.49,17.39-6.07,5.26-2.59,10-5.56,14.19-8.91,4.19-3.34,7.83-6.97,10.94-10.9,3.11-3.92,5.7-7.95,7.76-12.09,2.06-4.13,3.6-8.29,4.62-12.5,1.02-4.2,1.52-8.21,1.49-12.05-.03-4.87-.83-9.48-2.39-13.85-1.57-4.35-3.89-7.87-6.98-10.55-3.09-2.67-6.92-4.48-11.47-5.42-4.56-.95-9.87-.72-15.95.69,9.57-2.39,17.77-5.6,24.6-9.6,6.83-4,12.42-8.39,16.78-13.16,4.36-4.76,7.56-9.71,9.59-14.84,2.02-5.13,3.02-10.08,2.99-14.86-.03-4.01-1.23-7.6-3.62-10.75Z"/>
        <path class="cls-2" d="M175.46,238.39c2.6,1.99,6.59,2.37,12,1.12,3.12-.72,5.81-1.82,8.04-3.31,2.23-1.48,4.09-3.18,5.55-5.08,1.46-1.9,2.52-3.92,3.19-6.08.66-2.16.99-4.29.97-6.42-.02-2.31-.44-4.21-1.28-5.71-.84-1.5-1.97-2.6-3.39-3.3-1.42-.7-3.08-1.09-4.99-1.15-1.9-.07-3.93.16-6.08.65-3.44.79-6.3,2-8.6,3.63-2.29,1.63-4.13,3.4-5.5,5.31-1.37,1.91-2.36,3.84-2.96,5.8-.6,1.96-.9,3.65-.89,5.08.03,4.32,1.34,7.47,3.93,9.47Z"/>
        <path class="cls-2" d="M569.46,211.51c-2.38,2.85-5.28,5.96-8.7,9.33-3.42,3.37-7.06,6.59-10.91,9.65-3.86,3.08-7.82,5.81-11.89,8.21-4.08,2.39-7.95,4.01-11.63,4.86-1.17.27-2.26.4-3.29.4-1.02-.01-1.99-.21-2.92-.6-.93-.39-1.85-1.03-2.75-1.91-.9-.88-1.81-2.04-2.75-3.46,5.34-2.69,10.29-5.86,14.86-9.52,4.57-3.66,8.49-7.53,11.79-11.64,3.3-4.09,6.18-8.75,8.64-13.99,2.46-5.24,3.68-9.73,3.65-13.48-.02-3.53-.66-6.57-1.9-9.13-1.25-2.55-2.97-4.59-5.16-6.1-2.2-1.5-4.77-2.48-7.73-2.91-2.95-.43-6.15-.25-9.59.54-4.21.97-8.04,2.61-11.48,4.9-3.44,2.29-6.54,5.02-9.3,8.21-2.76,3.18-5.17,6.66-7.22,10.48-2.05,3.8-3.76,7.71-5.1,11.68s-2.65,8.49-3.9,13.52c-1.25,5.03-1.86,9.25-1.84,12.68.02,2.52.2,4.95.55,7.28.19,1.25.42,2.48.7,3.68-.28-1.2-.52-2.43-.7-3.68-.73.68-1.46,1.34-2.18,1.98-1.69,1.52-3.44,3.03-5.26,4.55-1.82,1.52-3.59,2.89-5.31,4.13-1.72,1.24-3.35,2.29-4.89,3.15-1.53.85-2.9,1.41-4.09,1.69-.49.11-1.02-.13-1.58-.71-.56-.59-1.09-1.44-1.59-2.54-.51-1.11-.93-2.38-1.28-3.84-.35-1.45-.52-2.99-.53-4.61v-1.31c.16-1.29.4-2.63.71-4.01.3-1.38.6-2.68.89-3.91.3-1.22.62-2.38.95-3.45.34-1.07.65-1.96.96-2.66,2.79-6.27,5.85-12.74,9.16-19.39,3.32-6.66,6.61-13.4,9.89-20.24,3.28-6.84,6.43-13.69,9.46-20.56,3.02-6.86,5.68-13.64,7.97-20.31,2.29-6.66,4.1-13.19,5.44-19.58,1.33-6.39,1.98-12.5,1.94-18.35-.02-2.36-.25-4.62-.69-6.79-.45-2.17-1.2-4.04-2.27-5.59-1.07-1.55-2.53-2.66-4.39-3.33-1.86-.67-4.21-.67-7.05-.01-3.91.9-7.75,2.92-11.51,6.05-3.77,3.13-7.37,7.08-10.82,11.82-3.44,4.76-6.73,10.15-9.86,16.2-3.13,6.05-6.02,12.44-8.67,19.18-2.66,6.74-5.3,15.49-7.91,26.24-2.61,10.75-3.86,15.85-3.92,16.12-.04.26-.85,5.27-2.55,15.82-1.71,10.56-2.53,18.87-2.5,24.94.02,3.61.2,7.1.53,10.48-1.63,2.29-3.44,4.69-5.42,7.19-3.24,4.09-6.63,7.95-10.21,11.56-3.57,3.61-7.13,6.75-10.69,9.39-3.55,2.65-6.79,4.31-9.74,4.99-3,.69-5.44.59-7.35-.3-1.9-.89-3.46-2.21-4.66-3.94-1.21-1.73-2.01-3.76-2.42-6.09-.42-2.32-.63-4.6-.64-6.83,0-1.49.04-3.34.15-5.57.11-2.23.41-4.6.92-7.14.5-2.53,1.35-5.72,2.56-9.56,1.19-3.85,2.41-6.88,3.66-9.12,1.24-2.24,2.74-4.17,4.51-5.78,1.76-1.62,3.9-2.72,6.4-3.3,1.04-.24,1.71.1,2.02,1.02.31.92.47,2.12.48,3.61.07,1.71.05,2.84-.07,3.36-.89,3.8-1.43,6.22-1.61,7.25-.54,1.98-.06,4.01,1.45,6.08.92,1.34,2.92,1.65,6.03.93,2.06-.48,3.9-1.39,5.52-2.76,1.62-1.37,3.28-3.63,4.99-6.78,1.71-3.15,2.85-5.82,3.44-8,.59-2.18.87-4.32.86-6.43-.02-3.03-.68-5.71-1.97-8.05-1.29-2.34-3.07-4.21-5.33-5.61-2.27-1.39-4.99-2.27-8.16-2.62-3.17-.35-6.62-.1-10.35.76-4.13.95-7.92,2.59-11.37,4.91-3.45,2.31-6.56,5.08-9.36,8.29-2.79,3.21-5.24,6.77-7.34,10.66-2.11,3.9-3.87,7.88-5.3,11.96-1.42,4.08-2.74,8.78-3.94,14.07-1.2,5.3-1.8,9.74-1.77,13.33,0,1.37.07,2.71.19,4.03.32,3.5,1.03,6.81,2.13,9.94-1.1-3.13-1.81-6.44-2.13-9.94-1.57,2.47-3.07,4.73-4.48,6.79-3.23,4.68-6.16,8.62-8.78,11.83-2.62,3.2-5.01,5.83-7.15,7.87-2.15,2.04-4.15,3.81-6.01,5.29,1.54-10.93,3.07-21.16,4.57-30.72.66-4.05,1.52-9.38,2.58-16.03,1.06-6.64,1.88-11.81,2.47-15.49.59-3.68,1.12-6.96,1.58-9.85.46-2.89.83-5.19,1.1-6.91.18-.78.27-1.46.27-2.02-.01-1.79-.67-2.96-1.96-3.5-1.3-.53-2.9-.59-4.8-.15-1.6.37-3.29,1.04-5.07,2.01-1.78.96-3.49,2.22-5.15,3.74-1.65,1.53-3.09,3.24-4.31,5.13-1.28,1.97-2.13,4.02-2.55,6.17l-7.15,36.42c-.23,2.05-.75,4.67-1.56,7.86-.81,3.18-1.88,6.33-3.21,9.45s-2.91,5.89-4.74,8.31c-1.83,2.42-3.88,3.89-6.15,4.41-1.42.33-2.58.24-3.51-.27-.93-.51-1.67-1.27-2.23-2.3-.56-1.03-.95-2.25-1.17-3.68-.23-1.42-.34-2.92-.35-4.47-.02-3.01.32-6.5,1.03-10.5.7-4.01,1.66-9.42,2.86-16.24,1.2-6.83,2.16-12.29,2.88-16.39.72-4.09,1.62-7.69,2.68-10.79.35-1.01.61-1.94.75-2.78.15-.84.22-1.6.22-2.28-.01-2.29-.8-3.8-2.33-4.53-1.54-.73-3.39-.85-5.53-.36-2.52.58-5.09,1.9-7.72,3.97-2.63,2.06-4.64,4.65-6.03,7.76-1.88,4.34-3.54,8.59-4.99,12.73-1.45,4.15-2.69,9.65-3.73,16.49-1.03,6.85-1.9,12.59-2.61,17.24-.06.37-.11.75-.16,1.12-.94,1.25-1.92,2.53-2.95,3.83-3.24,4.09-6.63,7.95-10.21,11.56-3.58,3.61-7.13,6.75-10.69,9.39-3.55,2.65-6.79,4.31-9.74,4.99-3,.69-5.45.59-7.35-.3-1.9-.89-3.46-2.21-4.66-3.94-1.21-1.73-2.01-3.76-2.42-6.09-.42-2.32-.63-4.6-.64-6.83,0-1.49.04-3.34.15-5.57.11-2.23.41-4.6.92-7.14.5-2.53,1.35-5.72,2.56-9.56,1.19-3.85,2.41-6.88,3.66-9.12,1.24-2.24,2.74-4.17,4.51-5.78s3.9-2.72,6.4-3.3c1.04-.24,1.71.1,2.02,1.02.31.92.47,2.12.48,3.61.07,1.71.05,2.84-.07,3.36-.89,3.8-1.43,6.22-1.61,7.25-.54,1.98-.06,4.01,1.45,6.08.92,1.34,2.92,1.65,6.03.93,2.06-.48,3.9-1.39,5.52-2.76,1.62-1.37,3.28-3.63,4.99-6.78,1.71-3.15,2.85-5.82,3.44-8,.59-2.18.87-4.32.86-6.43-.02-3.03-.68-5.71-1.97-8.05-1.29-2.34-3.07-4.21-5.33-5.61-2.27-1.39-4.99-2.27-8.16-2.62-3.18-.35-6.62-.1-10.35.76-4.13.95-7.92,2.59-11.37,4.91-3.45,2.31-6.56,5.08-9.36,8.29-2.79,3.21-5.24,6.77-7.34,10.66-2.11,3.9-3.87,7.88-5.3,11.96-1.42,4.08-2.74,8.78-3.94,14.07-1.2,5.3-1.8,9.74-1.77,13.33.02,2.78.27,5.45.74,8.01.06.34.14.68.21,1.02-.07-.34-.15-.68-.21-1.02-1.74,1.91-3.51,3.78-5.31,5.64-2.75,2.84-5.46,5.34-8.16,7.5-2.69,2.18-5.14,3.52-7.35,4.03-1.91.44-3.17-.09-3.79-1.59-.62-1.5-.95-3.64-.97-6.42-.02-2.85.41-6.11,1.26-9.8.86-3.68,1.57-7.35,2.13-11.01.56-3.66,1.61-8.17,3.16-13.54,1.55-5.36,2.71-9.72,3.5-13.09.78-3.37,1.48-6.36,2.1-9,.61-2.63.91-4.63.91-5.99-.01-1.61-.47-2.79-1.38-3.54-.91-.75-2.64-.83-5.17-.25-1.38.32-2.94.85-4.65,1.59-1.72.74-3.37,1.65-4.97,2.74-1.59,1.09-3.02,2.35-4.27,3.77-1.38,1.57-2.22,3.17-2.51,4.81-.53,2.36-1.94,7.5-4.22,15.43-2.45,9.65-4.09,15.89-4.9,18.73-.5,1.44-1.6,7.74-3.29,18.91-.83,5.4-1.22,10.05-1.2,13.95.02,2.79.32,5.28.92,7.46.6,2.18,1.58,3.93,2.94,5.23,1.36,1.3,3.13,2.14,5.32,2.54,2.19.39,4.87.22,8.07-.52,3.56-.82,7.31-2.34,11.27-4.56,3.95-2.21,7.82-4.73,11.61-7.56,3.79-2.83,7.32-5.78,10.59-8.87,1.27-1.2,2.46-2.35,3.57-3.47-.37-.53-.72-1.07-1.06-1.63.34.56.69,1.11,1.06,1.63.91,1.3,1.92,2.49,3.03,3.58,2.93,2.86,6.54,4.84,10.85,5.95,4.3,1.12,9.3,1.02,14.98-.3,3.25-.75,6.44-2,9.6-3.75,3.15-1.75,6.18-3.79,9.09-6.1,2.9-2.31,5.69-4.83,8.34-7.55,2.66-2.72,5.12-5.46,7.37-8.21.9-1.1,1.8-2.21,2.68-3.34.33,1.79.84,3.43,1.5,4.93,1.31,2.96,3.04,5.31,5.2,7.08,2.16,1.76,4.65,2.92,7.45,3.49,2.8.56,5.67.5,8.62-.18,3.37-.78,6.85-2.49,10.43-5.12,3.58-2.64,7.02-5.8,10.31-9.51l-1.96,11.69c-3.85,4.3-7.16,8.25-9.93,11.86-2.77,3.61-6.29,8.36-10.56,14.23-2.13,2.85-4.17,5.94-6.11,9.31-1.95,3.42-3.38,6.03-4.29,7.82-.91,1.79-2.49,4.98-4.73,9.59-4,8.23-5.74,15.56-5.21,22.01.27,3.4,1.12,6.23,2.54,8.47,1.43,2.24,3.24,3.85,5.46,4.83,2.22.97,4.66,1.51,7.33,1.6,2.67.1,5.56-.21,8.69-.93,3.86-.89,7.4-2.33,10.64-4.31,3.24-1.99,6-4.26,8.29-6.8,2.28-2.55,4.36-5.46,6.25-8.75,1.88-3.29,3.39-6.51,4.54-9.65,1.14-3.15,2.14-6.55,2.97-10.17.84-3.64,1.41-6.83,1.73-9.59.31-2.76.65-5.66,1.01-8.7.07-1.25.29-3.06.62-5.41.76-8.17,1.44-13.8,2.04-16.88.6-3.09,1.73-5.37,3.41-6.88,6.87-6.23,10.91-10.01,12.14-11.35,4.03-4.18,6.26-6.48,6.69-6.88,1.35-1.3,3.54-3.71,6.59-7.25,1.74-2.05,3.38-4.13,4.95-6.23h0c.89,1.26,1.87,2.41,2.96,3.47,2.93,2.85,6.54,4.84,10.85,5.95,4.3,1.12,9.3,1.02,14.98-.3,3.25-.75,6.44-2,9.6-3.75,3.16-1.75,6.18-3.79,9.08-6.1,2.91-2.31,5.69-4.83,8.34-7.55,2.66-2.72,5.12-5.46,7.37-8.21,2.86-3.47,5.62-7.13,8.27-10.97,1.02,3.68,2.24,6.96,3.66,9.87,2.14,4.39,4.64,7.7,7.5,9.94s5.94,2.98,9.25,2.21c2.15-.5,4.45-1.31,6.92-2.44,2.46-1.13,4.98-2.46,7.57-4,2.59-1.54,5.16-3.21,7.71-5.01,2.56-1.8,5.03-3.6,7.42-5.39,1.82-1.4,3.65-2.84,5.48-4.33-.92-1.04-1.75-2.17-2.51-3.38.76,1.21,1.59,2.33,2.51,3.38.29.33.59.66.9.98,2.89,2.96,6.49,5.01,10.8,6.16,4.32,1.15,9.34,1.06,15.07-.26,3.69-.85,7.32-2.12,10.91-3.81,3.58-1.69,7.04-3.64,10.38-5.85,3.34-2.2,6.52-4.58,9.54-7.13,3.02-2.56,5.85-5.09,8.48-7.61,6.05-5.86,11.75-12.32,17.11-19.37l-11.96-9.43ZM315.99,342.88c-.36,3.18-.66,5.9-.91,8.17-.25,2.26-.65,4.35-1.19,6.28-.97,3.57-1.76,6.44-2.39,8.59-.63,2.16-1.36,4.37-2.17,6.64-.82,2.26-1.58,4.05-2.32,5.36-.73,1.31-1.58,2.57-2.56,3.75-.98,1.19-2.05,2.1-3.21,2.74-1.16.64-2.48,1.13-3.96,1.47-4.05.93-5.08-1.8-3.09-8.21,2.42-7.63,5.69-15.32,9.82-23.1,4.14-7.77,8.35-13.7,12.64-17.79-.1.88-.33,2.91-.68,6.08ZM462.74,205.37c.27-6.41,1.21-14.01,2.81-22.77,1.6-8.77,2.35-12.94,2.39-13.16.07-.24,1.32-4.84,3.97-14.51,2.65-9.66,4.93-16.73,6.85-21.19,1.92-4.46,3.85-8.1,5.78-10.9,1.94-2.8,3.75-4.4,5.43-4.79.47-.11.74.47.84,1.73.09,1.26.15,2.79.16,4.6-.52,5.81-1.77,12.25-3.76,19.29-1.99,7.06-4.35,14.21-7.08,21.47-2.73,7.25-5.63,14.36-8.7,21.32-3.07,6.96-5.97,13.26-8.71,18.89ZM492.59,247.72c-.15-.44-.28-.89-.41-1.33.13.45.26.89.41,1.33.33.99.69,1.94,1.08,2.85-.4-.91-.76-1.87-1.08-2.85ZM512.56,218.47c.12-1.91.67-4.43,1.67-7.57.99-3.14,1.87-5.78,2.63-7.93.76-2.15,1.76-4.13,3.01-5.97,1.25-1.83,2.82-3.45,4.69-4.85,1.87-1.41,4.13-2.41,6.79-3.02,1.48-.34,2.73.24,3.76,1.77,1.02,1.53,1.55,3.65,1.57,6.36.01,1.94-1.05,4.64-3.18,8.1-2.14,3.47-4.33,6.33-6.57,8.6-2.24,2.28-4.66,4.28-7.27,6-2.61,1.72-5.03,2.84-7.24,3.35,0-1.34.04-2.95.15-4.86Z"/>
      </g>
      <path class="cls-3" d="M290.71,549.24c-2.76,0-5-2.24-5-5s2.24-5,5-5c63.98,0,125.74-23.14,173.89-65.15,47.69-41.61,78.94-98.83,87.98-161.13.4-2.73,2.94-4.62,5.67-4.23,2.73.4,4.63,2.93,4.23,5.67-9.38,64.66-41.81,124.05-91.3,167.23-49.97,43.6-114.06,67.61-180.46,67.61Z"/>
      <path class="cls-3" d="M36.83,188.63c-.56,0-1.13-.09-1.69-.29-2.6-.93-3.95-3.79-3.02-6.39,18.91-52.76,53.1-97.97,98.87-130.74C177.76,17.7,232.99,0,290.71,0c2.76,0,5,2.24,5,5s-2.24,5-5,5c-55.62,0-108.84,17.06-153.9,49.33-44.11,31.59-77.06,75.15-95.28,125.99-.73,2.04-2.66,3.31-4.71,3.31Z"/>
      <g>
        <path class="cls-2" d="M380.16,340.84c-1.24-.4-2.85-.65-4.82-.78-1.9-.09-3.25-.35-4.04-.78-.79-.43-1.18-1.23-1.19-2.39,0-1.36.42-2.53,1.3-3.52.88-1,2.08-1.67,3.61-2.02,2.54-.59,4.87-.07,6.98,1.55l1.4-4.24c-.96-.89-2.18-1.47-3.68-1.75s-3.07-.22-4.73.16c-1.81.42-3.41,1.17-4.78,2.27-1.37,1.09-2.43,2.4-3.17,3.93-.74,1.54-1.11,3.17-1.1,4.92.02,2.44.7,4.13,2.06,5.1,1.35.96,3.52,1.5,6.48,1.62,1.91.09,3.27.34,4.1.74.83.4,1.26,1.16,1.26,2.27,0,1.31-.44,2.42-1.33,3.35-.89.92-2.15,1.58-3.79,1.96-1.48.34-2.85.4-4.1.17-1.25-.22-2.45-.74-3.61-1.56l-1.43,4.24c1.11.88,2.46,1.44,4.04,1.68,1.58.25,3.28.16,5.09-.26,1.92-.44,3.58-1.19,5-2.24,1.41-1.04,2.48-2.31,3.22-3.8.75-1.49,1.11-3.12,1.1-4.89-.01-1.6-.35-2.87-1.02-3.78-.67-.91-1.62-1.57-2.86-1.96Z"/>
        <polygon class="cls-2" points="410.81 319.18 410.89 331.56 398.79 334.35 398.71 321.97 394.5 322.95 394.69 352.52 398.9 351.55 398.82 338.71 410.91 335.92 411 348.76 415.23 347.78 415.04 318.2 410.81 319.18"/>
        <path class="cls-2" d="M443.23,313.15c-1.7-.83-3.69-.98-5.99-.45-2.29.53-4.29,1.6-5.97,3.21-1.68,1.6-2.96,3.66-3.86,6.15-.89,2.49-1.33,5.28-1.31,8.35.02,3.1.5,5.69,1.43,7.76.93,2.08,2.24,3.54,3.94,4.38,1.7.84,3.68,1,5.96.47,2.3-.53,4.28-1.6,5.96-3.22,1.67-1.62,2.95-3.68,3.84-6.17.89-2.49,1.33-5.29,1.31-8.39-.02-3.08-.48-5.66-1.39-7.73-.91-2.08-2.21-3.54-3.91-4.36ZM442.49,334.75c-1.21,2.17-2.9,3.5-5.09,4.01-2.19.5-3.89-.04-5.12-1.65-1.23-1.61-1.85-4.16-1.88-7.68-.02-3.52.56-6.35,1.77-8.49,1.2-2.13,2.89-3.46,5.08-3.96,2.19-.51,3.89.04,5.12,1.63,1.23,1.58,1.85,4.13,1.87,7.62.02,3.52-.57,6.35-1.77,8.52Z"/>
        <path class="cls-2" d="M475.62,306.52c-1.43-1.21-3.41-1.52-5.95-.93l-10.24,2.36.19,29.58,4.28-.99-.08-12.34,5.96-1.38c2.52-.58,4.48-1.81,5.9-3.69,1.42-1.88,2.11-4.15,2.09-6.81-.02-2.66-.73-4.59-2.16-5.81ZM472.62,316.87c-.76.94-1.88,1.58-3.35,1.92l-5.46,1.26-.06-8.94,5.46-1.26c1.5-.35,2.63-.22,3.39.37.75.58,1.14,1.61,1.15,3.08,0,1.44-.37,2.63-1.13,3.57Z"/>
      </g>
    </g>
  </g>
</svg>